<svg width="26.25" xmlns="http://www.w3.org/2000/svg" height="30" viewBox="1181.175 872.435 26.25 30" fill="none"><defs><linearGradient id="a" x1=".545" y1="-.249" x2=".545" y2="1.439"><stop offset="0" stop-color="#597a12"/><stop offset="1" stop-color="#faca1e"/></linearGradient><pattern patternUnits="userSpaceOnUse" x="1181.175" y="872.435" width="26.25" height="30" id="b"><rect width="26.25" height="30" style="fill: url(&quot;#a&quot;);"/></pattern></defs><path d="M1186.8 872.435a5.626 5.626 0 0 0-5.625 5.625v18.75a5.627 5.627 0 0 0 5.625 5.625h18.75a1.873 1.873 0 0 0 1.875-1.875 1.873 1.873 0 0 0-1.875-1.875v-3.75a1.873 1.873 0 0 0 1.875-1.875v-18.75a1.873 1.873 0 0 0-1.875-1.875h-18.75Zm0 22.5h15v3.75h-15a1.873 1.873 0 0 1-1.875-1.875c0-1.037.838-1.875 1.875-1.875Zm1.875-14.063a.94.94 0 0 1 .938-.937h11.25a.94.94 0 0 1 .937.937.94.94 0 0 1-.937.938h-11.25a.94.94 0 0 1-.938-.938Zm.938 2.813h11.25a.94.94 0 0 1 .937.937.94.94 0 0 1-.937.938h-11.25a.94.94 0 0 1-.938-.938.94.94 0 0 1 .938-.937Z" fill="url(#b)" class="fills"/></svg>