<svg width="15" xmlns="http://www.w3.org/2000/svg" height="15.005" viewBox="515.5 1436.935 15 15.005" fill="none"><path d="M523 1436.935a2.813 2.813 0 0 1 2.812 2.812v.106c0 .46-.372.832-.832.832h-3.96a.832.832 0 0 1-.833-.832v-.106a2.814 2.814 0 0 1 2.813-2.812Zm-6.287 3.088a.937.937 0 0 1 1.327 0l1.875 1.875c.021.02.038.041.056.061.416-.214.89-.334 1.391-.334h3.279c.501 0 .972.12 1.391.334.018-.02.035-.041.056-.061l1.875-1.875a.937.937 0 1 1 1.327 1.327l-1.875 1.875a1.01 1.01 0 0 1-.061.055c.181.352.295.742.325 1.158h1.883a.937.937 0 1 1 0 1.875h-1.875c0 .72-.161 1.4-.451 2.009a.82.82 0 0 1 .176.141l1.875 1.875a.94.94 0 0 1-1.327 1.327l-1.849-1.848a4.666 4.666 0 0 1-2.645 1.16v-7.011a.47.47 0 0 0-.469-.469.47.47 0 0 0-.469.469v7.008a4.672 4.672 0 0 1-2.645-1.16l-1.846 1.845a.937.937 0 1 1-1.327-1.327l1.875-1.875a1.15 1.15 0 0 1 .176-.14 4.682 4.682 0 0 1-.449-2.007h-1.875a.937.937 0 1 1 0-1.875h1.884c.033-.413.147-.806.325-1.157-.02-.018-.041-.036-.061-.056l-1.875-1.875a.933.933 0 0 1 .003-1.324Z" style="fill: rgb(50, 73, 4); fill-opacity: 1;" class="fills"/></svg>