<svg width="16.875" xmlns="http://www.w3.org/2000/svg" height="12.904" viewBox="515.5 1466.872 16.875 12.904" fill="none"><path d="M522.812 1479.748a.491.491 0 0 0 .657-.454v-11.056a.4.4 0 0 0-.147-.323c-.574-.457-1.892-1.043-3.603-1.043-1.48 0-2.863.39-3.689.706a.857.857 0 0 0-.53.812v10.848c0 .349.375.592.706.484.923-.308 2.385-.662 3.513-.662.993 0 2.314.41 3.093.688Zm2.25 0c.78-.278 2.101-.688 3.094-.688 1.128 0 2.59.354 3.513.662.331.111.706-.135.706-.484v-10.848c0-.355-.199-.683-.53-.809-.826-.319-2.209-.709-3.689-.709-1.711 0-3.029.586-3.603 1.043a.408.408 0 0 0-.147.323v11.056c0 .334.343.566.656.454Z" style="fill: rgb(50, 73, 4); fill-opacity: 1;" class="fills"/></svg>