<svg width="15" xmlns="http://www.w3.org/2000/svg" height="15" viewBox="1416.57 1187.435 15 15" fill="none"><path d="M1425.945 1187.435a.937.937 0 1 0 0 1.875h2.423l-5.898 5.9a.94.94 0 0 0 1.328 1.327l5.897-5.9v2.423a.936.936 0 1 0 1.875 0v-4.688a.937.937 0 0 0-.938-.937h-4.687Zm-7.031.937a2.343 2.343 0 0 0-2.344 2.344v9.375a2.343 2.343 0 0 0 2.344 2.344h9.375a2.343 2.343 0 0 0 2.343-2.344v-3.281a.937.937 0 1 0-1.875 0v3.281a.47.47 0 0 1-.468.469h-9.375a.47.47 0 0 1-.469-.469v-9.375a.47.47 0 0 1 .469-.469h3.281a.936.936 0 0 0 .937-.937.936.936 0 0 0-.937-.938h-3.281Z" style="fill: rgb(50, 73, 4); fill-opacity: 1;" class="fills"/></svg>