<svg width="34.286" xmlns="http://www.w3.org/2000/svg" height="30" viewBox="641.557 665.435 34.286 30" fill="none"><defs><linearGradient id="a" x1=".545" y1="-.249" x2=".545" y2="1.439"><stop offset="0" stop-color="#597a12"/><stop offset="1" stop-color="#faca1e"/></linearGradient><pattern patternUnits="userSpaceOnUse" x="641.557" y="665.435" width="34.286" height="30" id="b"><rect width="34.286" height="30" style="fill: url(&quot;#a&quot;);"/></pattern></defs><path d="M653.343 669.185v2.678h10.714v-2.678a.537.537 0 0 0-.536-.536h-9.642a.537.537 0 0 0-.536.536Zm-3.214 2.678v-2.678c0-2.069 1.68-3.75 3.75-3.75h9.642c2.07 0 3.75 1.681 3.75 3.75v2.678h1.882c.851 0 1.668.342 2.27.945l3.476 3.475c.602.603.944 1.42.944 2.27v5.096h-8.572v-1.071a2.14 2.14 0 0 0-2.142-2.143 2.14 2.14 0 0 0-2.143 2.143v1.071h-8.572v-1.071a2.14 2.14 0 0 0-2.143-2.143 2.14 2.14 0 0 0-2.142 2.143v1.071h-8.572v-5.096c0-.85.342-1.667.944-2.27l3.476-3.475a3.211 3.211 0 0 1 2.27-.945h1.882Zm-8.572 19.286v-5.357h8.572v1.071a2.14 2.14 0 0 0 2.142 2.143 2.14 2.14 0 0 0 2.143-2.143v-1.071h8.572v1.071a2.14 2.14 0 0 0 2.143 2.143 2.14 2.14 0 0 0 2.142-2.143v-1.071h8.572v5.357a4.29 4.29 0 0 1-4.286 4.286h-25.714a4.29 4.29 0 0 1-4.286-4.286Z" fill="url(#b)" class="fills"/></svg>