<svg width="30" xmlns="http://www.w3.org/2000/svg" height="30" viewBox="704.2 872.435 30 30" fill="none"><defs><linearGradient id="a" x1=".545" y1="-.249" x2=".545" y2="1.439"><stop offset="0" stop-color="#597a12"/><stop offset="1" stop-color="#faca1e"/></linearGradient><pattern patternUnits="userSpaceOnUse" x="704.2" y="872.435" width="30" height="30" id="b"><rect width="30" height="30" style="fill: url(&quot;#a&quot;);"/></pattern></defs><path d="m723.993 884.488 2.848-2.491a9.264 9.264 0 0 1 1.605 3.879l-3.773.252a5.638 5.638 0 0 0-.68-1.64Zm8.209 1.142a13.032 13.032 0 0 0-2.531-6.111l.047-.041c.791-.692.832-1.91.087-2.649a1.816 1.816 0 0 0-2.648.088l-.041.047a13.021 13.021 0 0 0-6.111-2.531l.006-.065a1.816 1.816 0 1 0-3.622 0l.006.065a13.021 13.021 0 0 0-6.111 2.531l-.041-.047a1.812 1.812 0 0 0-2.648-.088 1.817 1.817 0 0 0 .087 2.649l.047.041a13.032 13.032 0 0 0-2.531 6.111l-.064-.006a1.815 1.815 0 1 0 0 3.621l.064-.006a13.031 13.031 0 0 0 2.531 6.112l-.047.041a1.815 1.815 0 1 0 2.561 2.56l.041-.047a13.023 13.023 0 0 0 6.111 2.532l-.006.064a1.813 1.813 0 0 0 1.811 1.934 1.817 1.817 0 0 0 1.811-1.934l-.006-.064a13.023 13.023 0 0 0 6.111-2.532l.041.047a1.811 1.811 0 0 0 2.648.088 1.81 1.81 0 0 0-.087-2.648l-.047-.041a13.031 13.031 0 0 0 2.531-6.112l.064.006a1.812 1.812 0 0 0 1.934-1.81c0-1.049-.891-1.881-1.998-1.805Zm-18.44-5.836a9.357 9.357 0 0 1 3.879-1.611l.252 3.773a5.708 5.708 0 0 0-1.64.68l-2.491-2.842Zm-3.808 6.082a9.324 9.324 0 0 1 1.611-3.879l2.848 2.491a5.544 5.544 0 0 0-.68 1.64l-3.779-.252Zm1.611 6.996a9.351 9.351 0 0 1-1.611-3.879l3.773-.252c.141.586.375 1.143.68 1.641l-2.842 2.49Zm6.082 3.809a9.382 9.382 0 0 1-3.879-1.606l2.491-2.847c.498.31 1.054.539 1.64.679l-.252 3.774Zm6.996-1.606a9.252 9.252 0 0 1-3.879 1.606l-.252-3.774a5.711 5.711 0 0 0 1.641-.679l2.49 2.847Zm3.809-6.082a9.377 9.377 0 0 1-1.606 3.879l-2.847-2.49c.31-.498.539-1.055.68-1.641l3.773.252Zm-3.809-9.193-2.49 2.848a5.617 5.617 0 0 0-1.641-.68l.252-3.773c1.43.24 2.748.802 3.879 1.605Zm-5.443 5.76a1.874 1.874 0 1 1 .001 3.749 1.874 1.874 0 0 1-.001-3.749Z" fill="url(#b)" class="fills"/></svg>