<?xml version="1.0" encoding="UTF-8" standalone="no"?>
<!-- Created with Inkscape (http://www.inkscape.org/) -->

<svg
   width="300mm"
   height="300mm"
   viewBox="0 0 300 300"
   version="1.1"
   id="svg1"
   xml:space="preserve"
   xmlns="http://www.w3.org/2000/svg"
   xmlns:svg="http://www.w3.org/2000/svg"><defs
     id="defs1" /><g
     id="layer1"
     transform="translate(-929.36054)"><path
       style="fill:#ffffff;fill-opacity:1;stroke:#000000;stroke-width:2.22207;stroke-linecap:butt;stroke-linejoin:round;stroke-dasharray:none;stroke-opacity:1"
       d="m 1082.4515,227.4564 0.1455,25.22337 17.047,1.46364 c 0.1701,-4.90646 -7.6048,-4.9514 -11.8178,-6.66309 l -0.2153,-21.51945 z"
       id="path34-9-6" /><path
       style="fill:#ffffff;fill-opacity:1;stroke:#000000;stroke-width:2.22207;stroke-linecap:butt;stroke-linejoin:round;stroke-dasharray:none;stroke-opacity:1"
       d="m 1107.1589,220.91264 0.1455,25.22337 15.9736,1.90372 c 1.2656,-4.31757 -6.5314,-5.39148 -10.7444,-7.10317 l -0.2153,-21.51945 z"
       id="path34-1-2-0" /><path
       style="fill:#000000;fill-opacity:1;stroke:#000000;stroke-width:2.29147;stroke-linecap:butt;stroke-linejoin:miter;stroke-dasharray:none;stroke-opacity:1"
       d="m 1041.809,146.30359 c -7.3525,10.73658 -6.8106,35.08253 -2.4734,48.40041 4.3372,13.3179 21.3719,37.26711 54.4447,35.22448 33.5145,-2.06989 42.002,-17.27754 46.7517,-31.05506 4.7497,-13.77752 3.6812,-36.74778 -2.8404,-46.91902 -5.8783,-9.16798 -11.6882,-14.53374 -13.4477,-24.17258 -2.6092,-14.29388 -2.0389,-29.393601 -11.6444,-35.533977 -9.6055,-6.140391 -22.312,-9.228204 -33.3306,-6.034316 -25.2459,7.317892 -21.1934,36.336593 -37.4599,60.090063 z"
       id="path29-8-4-0-4" /><path
       style="fill:#ffffff;fill-opacity:1;stroke:#000000;stroke-width:2.15922;stroke-linecap:butt;stroke-linejoin:miter;stroke-dasharray:none;stroke-opacity:1"
       d="m 1048.3067,147.7404 c -6.9281,10.11694 -8.9204,31.90878 -4.8335,44.45803 4.0869,12.54926 20.1384,35.11627 51.3025,33.19153 31.5802,-1.95043 39.5779,-16.28038 44.0535,-29.26274 4.4756,-12.98236 3.4687,-34.62692 -2.6765,-44.21113 -5.539,-8.63886 -11.0136,-13.69494 -12.6716,-22.77747 -2.4586,-13.46893 -1.9213,-27.69718 -10.9724,-33.483171 -9.0511,-5.785995 -21.0242,-8.695601 -31.4069,-5.686045 -23.7889,6.895545 -17.4674,35.388446 -32.7951,57.770996 z"
       id="path29-8-6-8" /><path
       style="fill:#ffffff;fill-opacity:1;stroke:none;stroke-width:2;stroke-linecap:butt;stroke-linejoin:miter;stroke-dasharray:none;stroke-opacity:1"
       d="m 1051.6907,149.18051 c -6.4173,9.3709 -8.2627,29.55579 -4.4771,41.17964 3.7855,11.62386 18.6534,32.52675 47.5194,30.74395 29.2514,-1.80661 36.6593,-15.07985 40.8049,-27.10487 4.1455,-12.02503 3.2129,-32.07349 -2.4791,-40.95095 -5.1306,-8.00182 -10.2015,-12.68506 -11.7372,-21.09783 -2.2773,-12.47572 -1.7796,-25.65477 -10.1633,-31.01408 -8.3837,-5.35933 -19.4739,-8.05438 -29.0909,-5.266749 -22.0347,6.387059 -16.1793,32.778859 -30.3767,53.510889 z"
       id="path29-89-8" /><ellipse
       style="fill:#000000;fill-opacity:1;fill-rule:evenodd;stroke:none;stroke-width:0.258608;stroke-linecap:round;stroke-linejoin:round;stroke-dasharray:none;paint-order:stroke fill markers"
       id="path30-7-2-2-8"
       cx="1088.0431"
       cy="127.39641"
       rx="3.7517014"
       ry="4.432889" /><ellipse
       style="fill:#000000;fill-opacity:1;fill-rule:evenodd;stroke:none;stroke-width:0.112386;stroke-linecap:round;stroke-linejoin:round;stroke-dasharray:none;paint-order:stroke fill markers"
       id="path30-7-2-4-6-9"
       cx="1100.0309"
       cy="129.70627"
       rx="1.7319201"
       ry="1.8135507" /><ellipse
       style="fill:#000000;fill-opacity:1;fill-rule:evenodd;stroke:none;stroke-width:0.258608;stroke-linecap:round;stroke-linejoin:round;stroke-dasharray:none;paint-order:stroke fill markers"
       id="path30-7-2-3-6-7"
       cx="1109.3595"
       cy="127.47119"
       rx="3.7517014"
       ry="4.432889" /><circle
       style="fill:#000000;fill-opacity:1;fill-rule:evenodd;stroke:none;stroke-width:2;stroke-linecap:round;stroke-linejoin:round;stroke-dasharray:none;paint-order:stroke fill markers"
       id="path30-4-7"
       cx="1099.6367"
       cy="181.88162"
       r="31.538715" /><path
       style="fill:none;fill-opacity:1;fill-rule:evenodd;stroke:#000000;stroke-width:2;stroke-linecap:round;stroke-linejoin:round;stroke-dasharray:none;stroke-opacity:1;paint-order:stroke fill markers"
       id="path31-9-6"
       d="m 963.72057,-561.38983 a 10.37511,9.5793457 0 0 1 -3.97291,7.53804 10.37511,9.5793457 0 0 1 -8.87605,1.76501"
       transform="rotate(37.211408)" /><g
       id="g20-0-3"
       style="fill:#ffffff;fill-opacity:1"
       transform="rotate(-10.432051,559.72032,-5178.5401)"><rect
         style="opacity:1;fill:#ffffff;fill-opacity:1;fill-rule:evenodd;stroke:none;stroke-width:1.28411;stroke-linecap:round;stroke-linejoin:round;stroke-dasharray:none;paint-order:stroke fill markers"
         id="rect14-4-0"
         width="39.082272"
         height="42.792702"
         x="46.256439"
         y="90.222977"
         ry="17.659569"
         rx="17.659569" /><rect
         style="opacity:1;fill:#ffffff;fill-opacity:1;fill-rule:evenodd;stroke:none;stroke-width:0.865;stroke-linecap:round;stroke-linejoin:round;stroke-dasharray:none;paint-order:stroke fill markers"
         id="rect15-8-3"
         width="0.035341524"
         height="1.8259397"
         x="45.867634"
         y="111.4557"
         ry="0.017670762"
         rx="0.017670762" /><rect
         style="opacity:1;fill:#ffffff;fill-opacity:1;fill-rule:evenodd;stroke:none;stroke-width:1.07021;stroke-linecap:round;stroke-linejoin:round;stroke-dasharray:none;paint-order:stroke fill markers"
         id="rect16-7-0"
         width="39.082272"
         height="106.5131"
         x="46.256439"
         y="114.93847"
         ry="0" /><rect
         style="opacity:1;fill:#ffffff;fill-opacity:1;fill-rule:evenodd;stroke:none;stroke-width:1.30627;stroke-linecap:round;stroke-linejoin:round;stroke-dasharray:none;paint-order:stroke fill markers"
         id="rect17-1-9"
         width="39.035"
         height="15.149404"
         x="46.256439"
         y="113.28165"
         ry="0.035483476"
         rx="0.035483476" /><g
         id="g19-7-2"
         style="fill:#ffffff;fill-opacity:1"><path
           style="opacity:1;fill:#ffffff;fill-opacity:1;fill-rule:evenodd;stroke:none;stroke-width:0.865;stroke-linecap:round;stroke-linejoin:round;stroke-dasharray:none;paint-order:stroke fill markers"
           id="path19-2-5"
           d="M 64.361776,221.49661 48.87973,254.83432 27.749453,224.75762 Z"
           transform="matrix(1.0590984,0.07998039,-0.09390223,0.90207761,37.972283,16.488876)" /><path
           style="opacity:1;fill:#ffffff;fill-opacity:1;fill-rule:evenodd;stroke:none;stroke-width:0.865;stroke-linecap:round;stroke-linejoin:round;stroke-dasharray:none;paint-order:stroke fill markers"
           id="path18-7-4"
           d="m 45.591456,234.83175 -6.86768,-0.0402 3.468687,-5.92747 z"
           transform="matrix(2.8498249,0,0,1.4012049,-64.09954,-107.54656)" /><path
           style="fill:#ffffff;fill-opacity:1;fill-rule:evenodd;stroke:none;stroke-width:0.865;stroke-linecap:round;stroke-linejoin:round;stroke-dasharray:none;paint-order:stroke fill markers"
           id="path18-1-2-0"
           d="m 45.591456,234.83175 -6.86768,-0.0402 3.468687,-5.92747 z"
           transform="matrix(-2.8498213,0,0,1.4012031,195.7251,-107.54616)" /></g></g><path
       style="fill:#ffffff;fill-opacity:1;stroke:none;stroke-width:0.264583px;stroke-linecap:butt;stroke-linejoin:miter;stroke-opacity:1"
       d="m 1015.8728,136.14707 -3.3704,-17.88421 c 12.4653,-5.48057 25.388,-8.39624 38.8751,-6.62119 l 2.9798,18.09293 c -13.0622,-1.90156 -25.8328,1.23077 -38.4845,6.41247 z"
       id="path28-2-5" /><path
       style="fill:#ffffff;fill-opacity:1;stroke:#000000;stroke-width:2;stroke-linecap:butt;stroke-linejoin:miter;stroke-dasharray:none;stroke-opacity:1"
       d="m 1012.7381,118.48584 19.5574,106.19824 24.6923,25.31526 14.0061,-32.16626 -19.7198,-106.49327 c -0.6066,-4.13498 -1.4887,-7.79466 -3.2161,-10.51332 -9.6835,-15.240571 -31.9229,-8.775653 -35.6043,5.12335 -1.002,3.78308 -0.7063,8.07047 0.2844,12.536 z"
       id="path20-6-9" /><path
       style="fill:#ffffff;fill-opacity:1;stroke:#000000;stroke-width:2;stroke-linecap:butt;stroke-linejoin:miter;stroke-dasharray:none;stroke-opacity:1"
       d="m 1032.5671,224.4572 7.6422,-9.38718 11.426,6.51721 8.3128,-9.9403 10.9497,6.26811"
       id="path21-1-4" /><path
       style="fill:#000000;fill-opacity:1;stroke:none;stroke-width:0.264583px;stroke-linecap:butt;stroke-linejoin:miter;stroke-opacity:1"
       d="m 1047.8456,240.64406 c 4.5128,-3.99018 9.4714,-4.62755 14.3215,-2.80109 l -4.9952,12.09097 z"
       id="path22-0-6" /><path
       style="fill:#ffffff;fill-opacity:1;stroke:#000000;stroke-width:2;stroke-linecap:butt;stroke-linejoin:miter;stroke-dasharray:none;stroke-opacity:1"
       d="M 1040.0179,214.97293 1024.472,133.11986"
       id="path23-6-9" /><path
       style="fill:#ffffff;fill-opacity:1;stroke:#000000;stroke-width:2;stroke-linecap:butt;stroke-linejoin:miter;stroke-dasharray:none;stroke-opacity:1"
       d="m 1060.2026,211.68987 -14.9228,-82.5533"
       id="path24-1-2" /><path
       style="fill:none;fill-opacity:1;stroke:#000000;stroke-width:2;stroke-linecap:butt;stroke-linejoin:miter;stroke-dasharray:none;stroke-opacity:1"
       d="m 1016.2192,136.0107 c 0,0 8.8857,-3.8839 18.1609,-5.64354 9.2751,-1.75963 20.1482,-1.3178 20.1482,-1.3178"
       id="path25-5-2" /><path
       style="fill:#ffffff;fill-opacity:1;stroke:#000000;stroke-width:2;stroke-linecap:butt;stroke-linejoin:miter;stroke-dasharray:none;stroke-opacity:1"
       d="m 1013.1745,118.53501 c 15.5405,-6.57723 22.5917,-8.08394 38.0822,-7.05037"
       id="path26-9-4" /><path
       style="fill:#ffffff;fill-opacity:1;stroke:#000000;stroke-width:2;stroke-linecap:butt;stroke-linejoin:miter;stroke-dasharray:none;stroke-opacity:1"
       d="m 1014.1986,127.95086 c 11.3118,-5.77729 23.601,-9.17899 38.4325,-7.54349"
       id="path27-4-7" /><path
       style="fill:#ffffff;fill-opacity:1;stroke:none;stroke-width:0.264583px;stroke-linecap:butt;stroke-linejoin:miter;stroke-opacity:1"
       d="m 1019.9409,128.53116 c 0,0 -2.9106,1.871 -0.8525,2.56239 1.463,0.49144 7.3858,-2.33354 6.6613,-3.55491 -0.7244,-1.22138 -5.8088,0.99251 -5.8088,0.99251 z"
       id="path33-9-9-7" /><path
       style="fill:#ffffff;fill-opacity:1;stroke:none;stroke-width:0.264583px;stroke-linecap:butt;stroke-linejoin:miter;stroke-opacity:1"
       d="m 1017.5486,120.33738 c 0,0 -2.9106,1.871 -0.8525,2.56239 1.463,0.49144 7.3858,-2.33354 6.6613,-3.55491 -0.7244,-1.22137 -5.8088,0.99251 -5.8088,0.99251 z"
       id="path33-9-4-0-5" /><rect
       style="fill:#ffffff;fill-opacity:1;fill-rule:evenodd;stroke:#000000;stroke-width:4;stroke-linecap:round;stroke-linejoin:round;stroke-dasharray:none;stroke-opacity:1;paint-order:stroke fill markers"
       id="rect33-1-8"
       width="27.655159"
       height="40.129005"
       x="1136.7692"
       y="-58.273968"
       ry="6.348772"
       transform="rotate(9.9483442)"
       rx="6.348772" /><g
       id="g38-7-1"
       transform="rotate(9.9483442,1065.1705,5409.6375)"
       style="stroke:#000000;stroke-opacity:1"><rect
         style="fill:none;fill-opacity:1;fill-rule:evenodd;stroke:#000000;stroke-width:1.58723;stroke-linecap:round;stroke-linejoin:round;stroke-dasharray:none;stroke-opacity:1;paint-order:stroke fill markers"
         id="rect34-7-2"
         width="12.948174"
         height="12.185374"
         x="224.64679"
         y="213.93785"
         ry="3.0082591"
         rx="3.0082591" /><path
         style="fill:none;stroke:#000000;stroke-width:3;stroke-linecap:butt;stroke-linejoin:round;stroke-dasharray:none;stroke-opacity:1"
         d="m 227.45656,218.24906 4.67997,4.4301 9.38493,-11.25845"
         id="path33-1-8" /></g><g
       id="g39-1-9"
       transform="rotate(9.9483442,1065.1705,5409.6375)"
       style="stroke:#000000;stroke-opacity:1"><rect
         style="fill:none;fill-opacity:1;fill-rule:evenodd;stroke:#000000;stroke-width:1.58723;stroke-linecap:round;stroke-linejoin:round;stroke-dasharray:none;stroke-opacity:1;paint-order:stroke fill markers"
         id="rect34-5-5-3"
         width="12.948174"
         height="12.185374"
         x="224.84355"
         y="230.29974"
         ry="3.0082591"
         rx="3.0082591" /><path
         style="fill:none;stroke:#000000;stroke-width:3;stroke-linecap:butt;stroke-linejoin:round;stroke-dasharray:none;stroke-opacity:1"
         d="m 227.77194,234.23535 4.67997,4.4301 9.38493,-11.25845"
         id="path33-5-9-6" /></g><rect
       style="fill:none;fill-opacity:1;fill-rule:evenodd;stroke:#000000;stroke-width:2;stroke-linecap:round;stroke-linejoin:round;stroke-dasharray:none;stroke-opacity:1;paint-order:stroke fill markers"
       id="rect35-7-8"
       width="0.92177975"
       height="5.0796404"
       x="1143.7932"
       y="-62.295284"
       ry="0.46088988"
       transform="rotate(9.9483442)"
       rx="0.46088988" /><rect
       style="fill:none;fill-opacity:1;fill-rule:evenodd;stroke:#000000;stroke-width:2;stroke-linecap:round;stroke-linejoin:round;stroke-dasharray:none;stroke-opacity:1;paint-order:stroke fill markers"
       id="rect35-6-76-0"
       width="0.92177975"
       height="5.0796404"
       x="1149.6749"
       y="-62.295284"
       ry="0.46088988"
       transform="rotate(9.9483442)"
       rx="0.46088988" /><rect
       style="fill:none;fill-opacity:1;fill-rule:evenodd;stroke:#000000;stroke-width:2;stroke-linecap:round;stroke-linejoin:round;stroke-dasharray:none;stroke-opacity:1;paint-order:stroke fill markers"
       id="rect35-6-7-7-2"
       width="0.92177975"
       height="5.0796404"
       x="1155.7053"
       y="-62.295284"
       ry="0.46088988"
       transform="rotate(9.9483442)"
       rx="0.46088988" /><g
       id="g47-3-1"
       transform="translate(923.17574,0.65077525)"
       style="fill:#ffffff;fill-opacity:1"><path
         style="fill:#ffffff;fill-opacity:1;stroke:#000000;stroke-width:2;stroke-linecap:butt;stroke-linejoin:miter;stroke-dasharray:none;stroke-opacity:1"
         d="m 136.50498,96.193448 c 0.67463,-0.178754 -0.43658,-19.841042 5.51806,-24.646936 5.95464,-4.805891 10.29102,-6.962144 10.29102,-6.962144 0,0 3.55923,-0.287218 6.00081,-0.989405 4.58572,-1.318825 5.98115,1.635514 10.93118,0.409317 0,0 13.73068,0.313271 20.26466,14.121911 6.53397,13.808644 5.23059,18.283574 5.23059,18.283574 0,0 5.60137,5.248925 6.60526,7.201485 1.00387,1.95254 2.59115,4.8201 0.57332,7.02019 -2.01783,2.2001 -24.45042,7.41132 -28.46082,7.46776 -4.0104,0.0565 -17.63804,-4.59407 -23.95818,-6.91583 -6.32013,-2.32175 -12.72921,-5.13438 -14.14449,-6.66968 -1.41526,-1.53529 -2.93096,-4.764295 -2.12542,-6.248525 0.80553,-1.484235 3.27401,-2.071719 3.27401,-2.071719 z"
         id="path41-6-0" /><path
         style="fill:#ffffff;fill-opacity:1;stroke:#000000;stroke-width:2;stroke-linecap:butt;stroke-linejoin:miter;stroke-dasharray:none;stroke-opacity:1"
         d="m 136.50498,96.193445 c 4.58189,7.703375 21.27528,11.028575 27.68924,11.164335 7.70691,0.16314 25.64908,-1.73796 27.94164,-6.04881 l 2.60544,-4.899207"
         id="path42-5-5" /><path
         style="fill:#ffffff;fill-opacity:1;stroke:#000000;stroke-width:2;stroke-linecap:butt;stroke-linejoin:round;stroke-dasharray:none;stroke-opacity:1"
         d="m 152.68328,64.500407 c 0,0 12.66898,12.735771 15.78829,17.1069 4.26739,5.979923 8.89556,19.345783 8.89556,19.345783 l 2.75986,-0.63355 c 0.106,0.24484 -1.036,-17.011362 -4.66563,-24.276192 -1.91186,-3.826647 -8.02442,-12.617784 -8.02442,-12.617784 0,0 -2.06028,-3.784542 -8.93304,-2.460575 -5.09507,0.981513 -5.82062,3.535418 -5.82062,3.535418 z"
         id="path43-6-1" /><path
         style="fill:#ffffff;fill-opacity:1;stroke:none;stroke-width:0.361916px;stroke-linecap:butt;stroke-linejoin:miter;stroke-opacity:1"
         d="m 156.5866,64.595799 c 0,0 12.07599,11.262498 14.15519,14.554337 2.07919,3.291838 6.19503,13.210337 6.86223,15.614527 0.62391,2.248291 0.60329,4.441868 0.60329,4.441868 -0.22739,0.405531 -4.12201,-13.935332 -10.88855,-20.669716 -6.73158,-6.699608 -12.8239,-14.178165 -12.8239,-14.178165 z"
         id="path44-3-1" /></g><path
       style="fill:#ffffff;fill-opacity:1;stroke:#000000;stroke-width:2;stroke-linecap:butt;stroke-linejoin:round;stroke-dasharray:none;stroke-opacity:1"
       d="m 1158.7162,152.73137 c -3.5291,-1.15651 -7.5883,1.1631 -5.3002,3.09458 1.1365,0.95931 3.7997,0.77137 3.5973,1.09702 0,0 -3.8142,-0.57856 -5.0232,1.71583 -0.8437,3.44493 2.5306,2.71317 3.1859,3.14068 0.4688,0.30579 -0.539,-0.0257 -1.6374,0.46074 -0.4796,0.21238 -1.0532,0.44067 -1.2443,1.1541 -0.5245,1.95761 4.7275,4.59564 7.1712,1.67262 0.2701,-0.32307 5.7225,-10.21467 -0.7493,-12.33557 z"
       id="path46-9-0" /><path
       style="fill:#ffffff;fill-opacity:1;stroke:#000000;stroke-width:2;stroke-linecap:butt;stroke-linejoin:round;stroke-dasharray:none;stroke-opacity:1"
       d="m 1019.3317,154.44243 c -1.3386,-0.33465 -11.9724,8.33612 -5.8164,15.88169 5.53,6.77822 24.6356,6.87746 24.6356,6.87746 0,0 0.7294,0.15099 3.0268,2.54321 1.527,1.58998 3.9353,2.35497 4.4843,0.20597 0.5315,-2.08074 -1.3676,-2.78043 -1.3676,-2.78043 0,0 4.0065,2.95348 5.2944,0.80137 1.2879,-2.1521 -2.4497,-3.00963 -3.9962,-3.1141 0,0 4.1493,-0.52629 4.3432,-2.09101 0.4692,-3.78618 -4.9094,-1.43523 -6.2167,-0.86207 0,0 1.7907,-2.2042 1.5111,-3.06463 -0.2795,-0.86044 -0.8665,-1.94185 -2.5339,-1.64466 -2.7944,0.49802 -2.8841,3.1406 -4.9036,5.63182 0.032,-0.0619 -14.8577,0.17482 -19.5849,-4.3387 -5.5407,-5.29028 2.0328,-9.43857 2.0328,-9.43857 z"
       id="path47-4-8" /></g></svg>
